<svg xmlns="http://www.w3.org/2000/svg" xmlns:xlink="http://www.w3.org/1999/xlink" width="500" zoomAndPan="magnify" viewBox="0 0 375 374.999991" height="500" preserveAspectRatio="xMidYMid meet" version="1.0"><defs><clipPath id="02513d4e2a"><path d="M 169 87.476562 L 202 87.476562 L 202 162 L 169 162 Z M 169 87.476562 " clip-rule="nonzero"/></clipPath><clipPath id="e61a095233"><path d="M 180 112 L 216 112 L 216 172.226562 L 180 172.226562 Z M 180 112 " clip-rule="nonzero"/></clipPath><clipPath id="872806296e"><path d="M 149.605469 157 L 228.355469 157 L 228.355469 172.226562 L 149.605469 172.226562 Z M 149.605469 157 " clip-rule="nonzero"/></clipPath></defs><g clip-path="url(#02513d4e2a)"><path fill="#000000" d="M 178.109375 161.152344 C 176.808594 159.34375 176.171875 155.332031 176.089844 153.535156 C 175.59375 142.960938 182.234375 133.707031 188.941406 126.222656 C 195.359375 119.0625 205.453125 108.039062 200.222656 97.65625 C 197.984375 93.207031 193.195312 90.683594 188.644531 89.195312 C 186.128906 88.375 180.585938 87.484375 180.585938 87.484375 C 180.609375 87.492188 193.515625 92.835938 178.109375 117.257812 C 159.511719 146.75 178.105469 161.144531 178.109375 161.152344 " fill-opacity="1" fill-rule="nonzero"/></g><g clip-path="url(#e61a095233)"><path fill="#000000" d="M 193.3125 136.425781 C 171.96875 157.003906 184.402344 172.660156 184.40625 172.664062 C 183.699219 170.910156 183.984375 167.46875 184.28125 165.96875 C 186.019531 157.136719 193.378906 150.84375 200.4375 146.023438 C 207.1875 141.414062 217.757812 134.363281 215.546875 124.730469 C 214.601562 120.597656 211.160156 117.546875 207.707031 115.394531 C 205.796875 114.203125 201.398438 112.34375 201.398438 112.34375 C 201.417969 112.359375 210.988281 119.386719 193.3125 136.425781 " fill-opacity="1" fill-rule="nonzero"/></g><g clip-path="url(#872806296e)"><path fill="#000000" d="M 264.566406 213.632812 C 261.03125 213.632812 257.726562 212.644531 254.90625 210.929688 C 256.792969 203.539062 257.800781 195.765625 257.800781 187.734375 C 257.800781 184.40625 257.621094 181.125 257.285156 177.890625 C 259.519531 176.941406 261.980469 176.410156 264.566406 176.410156 C 274.84375 176.410156 283.175781 184.742188 283.175781 195.019531 C 283.175781 205.300781 274.84375 213.632812 264.566406 213.632812 Z M 264.566406 168.15625 C 260.9375 168.15625 257.484375 168.878906 254.328125 170.183594 C 249.355469 164.949219 237.941406 160.347656 222.792969 157.472656 C 222.714844 157.457031 222.691406 157.570312 222.765625 157.59375 C 236.527344 161.339844 245.089844 166.609375 245.089844 172.445312 C 245.089844 183.820312 212.554688 193.042969 172.417969 193.042969 C 143.371094 193.042969 118.304688 188.214844 106.671875 181.234375 C 106.609375 181.195312 106.546875 181.277344 106.597656 181.328125 C 115.539062 190.5 145.1875 197.230469 180.378906 197.230469 C 203.84375 197.230469 224.835938 194.238281 238.875 189.527344 C 235.746094 234.914062 202.824219 270.222656 159.519531 270.222656 C 153.636719 270.222656 147.898438 269.5625 142.363281 268.304688 C 152.503906 273.082031 163.714844 275.738281 175.503906 275.738281 C 210.660156 275.738281 240.660156 252.164062 252.453125 219 C 256.09375 220.84375 260.207031 221.886719 264.566406 221.886719 C 279.402344 221.886719 291.429688 209.859375 291.429688 195.019531 C 291.429688 180.183594 279.402344 168.15625 264.566406 168.15625 " fill-opacity="1" fill-rule="nonzero"/></g><path fill="#000000" d="M 116.074219 213.265625 C 116.074219 213.265625 126.949219 240.511719 151.183594 260.230469 C 175.417969 279.957031 210.515625 276.617188 230.238281 250.367188 C 249.96875 224.128906 254.148438 209.753906 266.839844 198.894531 C 279.546875 188.019531 304.960938 187.398438 301.960938 216.144531 C 298.949219 244.898438 275.234375 264.882812 260.183594 257.523438 C 249.773438 252.441406 252.480469 236.550781 260.355469 229.414062 C 266.535156 223.8125 278.722656 225.238281 278.722656 234.511719 C 278.722656 238.996094 275.089844 242.636719 270.601562 242.636719 C 266.839844 242.636719 263.671875 240.066406 262.753906 236.585938 C 257.238281 248.570312 266.421875 257.371094 280.089844 241.386719 C 288.425781 231.660156 294.574219 215.285156 287.214844 207.140625 C 282.570312 201.996094 269.785156 205.792969 261.722656 218.046875 C 248.144531 238.679688 232.4375 281.273438 191.996094 284.273438 C 150.261719 287.363281 126.097656 248.902344 116.074219 213.265625 Z M 116.074219 213.265625 " fill-opacity="1" fill-rule="evenodd"/><path fill="#cf4f00" d="M 130.808594 232.0625 C 154.984375 270.171875 193.554688 284.121094 224.890625 251.335938 C 231.15625 244.789062 237.078125 236.535156 242.796875 226.714844 C 181.113281 264.519531 181.132812 219.652344 130.808594 232.0625 Z M 130.808594 232.0625 " fill-opacity="1" fill-rule="evenodd"/><path fill="#000000" d="M 165.914062 180.921875 C 132.632812 186.605469 121.953125 199.019531 131.714844 205.15625 C 174.242188 231.847656 299.898438 201.109375 229.59375 187.523438 C 208.53125 183.457031 190.34375 184.160156 180.113281 187.160156 C 173 189.246094 165.628906 195.871094 176.320312 199.265625 C 186.542969 202.519531 210.007812 199.503906 203.113281 203.738281 C 197.359375 207.273438 181.269531 208.113281 167.722656 206.480469 C 100.390625 198.351562 181.484375 172.121094 229.285156 181.269531 C 245.992188 184.464844 256.90625 190.351562 257.847656 197.304688 C 259.851562 212.207031 228.640625 220.148438 198.902344 222.277344 C 168.023438 224.472656 138.296875 220.566406 126.640625 215.28125 C 106.742188 206.253906 112.085938 183.265625 165.914062 180.921875 Z M 165.914062 180.921875 " fill-opacity="1" fill-rule="evenodd"/></svg>